<svg xmlns="http://www.w3.org/2000/svg" viewBox="0 0 24 24" role="img" aria-hidden="true">
  <defs>
    <linearGradient id="max-grad" x1="3" y1="3" x2="21" y2="21" gradientUnits="userSpaceOnUse">
      <stop stop-color="#06affb"/>
      <stop offset="0.45" stop-color="#001cf1"/>
      <stop offset="1" stop-color="#8900ac"/>
    </linearGradient>
  </defs>
  <circle cx="12" cy="12" r="10" fill="url(#max-grad)"/>
  <path fill="#fff" d="M8.2 7.8c-.4 0-.7.3-.7.7v5.2c0 .2.1.4.3.5.1.1.3.1.4 0l2-1.2 2.4 2.4c.2.2.5.2.7 0l4.1-4.1 1.5 1c.2.1.5.1.7-.1.2-.1.3-.3.3-.6V8.5c0-.4-.3-.7-.7-.7H8.2Z"/>
</svg>