<svg xmlns="http://www.w3.org/2000/svg" viewBox="8 8 22 22" role="img" aria-hidden="true">
  <defs>
    <linearGradient id="max-grad" x1="8" y1="8" x2="30" y2="30" gradientUnits="userSpaceOnUse">
      <stop stop-color="#06affb"/>
      <stop offset="0.45" stop-color="#001cf1"/>
      <stop offset="1" stop-color="#8900ac"/>
    </linearGradient>
  </defs>
  <path fill="url(#max-grad)" d="M18.1,28.3c-2,0-2.9-0.3-4.4-1.5c-1,1.3-4.2,2.3-4.3,0.6c0-1.3-0.3-2.4-0.6-3.6C8.4,22.4,8,20.8,8,18.4c0-5.7,4.7-10,10.2-10S28,13,28,18.4C27.9,23.9,23.6,28.3,18.1,28.3z"/>
  <path fill="#ffffff" d="M18.2,13.3c-2.7-0.1-4.8,1.7-5.2,4.7c-0.4,2.4,0.3,5.4,0.9,5.5c0.3,0.1,0.9-0.5,1.4-0.9c0.7,0.5,1.5,0.8,2.4,0.9c2.8,0.1,5.2-2,5.4-4.8C23.1,15.9,20.9,13.5,18.2,13.3z"/>
</svg>